<svg preserveAspectRatio="none" width="100%" height="100%" overflow="visible" style="display: block;" viewBox="0 0 16 16" fill="none" xmlns="http://www.w3.org/2000/svg">
<g id="Vector">
<path d="M11.5633 0.00016962C12.7372 0.0104463 13.8597 0.481759 14.6895 1.31236C15.5191 2.14293 15.9896 3.26598 15.9998 4.44006C16.01 5.61424 15.5591 6.74557 14.7438 7.5905C14.7402 7.59429 14.7367 7.59863 14.733 7.60236L12.5938 9.74221C12.1401 10.1966 11.5942 10.549 10.9927 10.7736C10.3914 10.998 9.74888 11.0904 9.10874 11.0445C8.46849 10.9986 7.84536 10.8156 7.28213 10.5076C6.71883 10.1995 6.22854 9.77304 5.84417 9.25867C5.54299 8.85548 5.62493 8.28429 6.02812 7.98306C6.43129 7.68188 7.00255 7.76499 7.30388 8.16798C7.53183 8.47303 7.82258 8.72605 8.15637 8.90862C8.49019 9.09119 8.85996 9.19884 9.23928 9.22604C9.6185 9.25318 9.99956 9.19888 10.3558 9.06584C10.712 8.93277 11.0353 8.72404 11.3042 8.45474L13.4384 6.31786C13.9176 5.81758 14.1832 5.14962 14.1772 4.45588C14.1711 3.75896 13.8918 3.09233 13.3998 2.59983C12.9079 2.10747 12.2427 1.82872 11.5475 1.8226C10.8567 1.81659 10.1906 2.08039 9.69124 2.5583L8.46493 3.77852C8.10816 4.13358 7.53042 4.13228 7.17532 3.77556C6.82057 3.4189 6.82186 2.84209 7.17829 2.4871L8.4046 1.26687L8.41449 1.25698C9.25857 0.441066 10.3896 -0.0100407 11.5633 0.00016962Z" fill="var(--fill-0, #1A1A1A)"/>
<path d="M6.89126 4.95549C7.53157 5.00141 8.15461 5.18438 8.71787 5.49243C9.28105 5.80044 9.7715 6.22612 10.1558 6.74035C10.4571 7.14354 10.3741 7.7147 9.97089 8.01595C9.56765 8.31714 8.9964 8.2352 8.69513 7.83202C8.46717 7.52697 8.17645 7.27395 7.84264 7.09138C7.50894 6.90896 7.13987 6.80016 6.76072 6.77298C6.38144 6.7458 6.0005 6.8011 5.64418 6.93416C5.2879 7.06723 4.96473 7.27592 4.69576 7.54526L2.56059 9.68115C2.08137 10.1814 1.8168 10.8504 1.82283 11.5441C1.82895 12.241 2.10819 12.9077 2.60015 13.4002C3.0921 13.8925 3.75733 14.1713 4.45248 14.1774C5.14779 14.1834 5.81819 13.9157 6.31865 13.4318L7.52617 12.2235C7.88189 11.8674 8.45865 11.8668 8.81479 12.2225C9.17093 12.5782 9.1715 13.1548 8.81578 13.5109L7.59639 14.7312C7.59276 14.7348 7.5892 14.7385 7.58551 14.742C6.7414 15.5581 5.61058 16.01 4.43666 15.9998C3.26276 15.9896 2.14034 15.5183 1.31054 14.6876C0.480841 13.8571 0.0104375 12.734 0.000169104 11.5599C-0.0100238 10.3858 0.440935 9.25443 1.25615 8.40951L1.26703 8.39764L3.40517 6.2568C3.85882 5.80252 4.40494 5.45103 5.0063 5.22643C5.60775 5.00184 6.25091 4.90958 6.89126 4.95549Z" fill="var(--fill-0, #1A1A1A)"/>
</g>
</svg>
