<svg width="24" height="24" viewBox="0 0 24 24" fill="none" xmlns="http://www.w3.org/2000/svg">
  <g transform="translate(12 12) rotate(-45)" fill="#1A1A1A">
    <path transform="translate(-10 -5)" d="M9 1.5791H4.41895C2.74925 1.5791 1.39551 3.1106 1.39551 5C1.39551 6.8894 2.74925 8.4209 4.41895 8.4209H9V10H4.41895C1.97862 10 0 7.76142 0 5C8.54042e-08 2.23858 1.97862 0 4.41895 0H9V1.5791ZM15.5811 0C18.0214 0 20 2.23858 20 5C20 7.76142 18.0214 10 15.5811 10H10.5V8.4209H15.5811C17.2508 8.4209 18.6045 6.8894 18.6045 5C18.6045 3.1106 17.2508 1.5791 15.5811 1.5791H10.5V0H15.5811Z"/>
    <path transform="translate(-4.75 -0.75)" d="M0 0.75C0 0.335786 0.335786 0 0.75 0H8.75C9.16421 0 9.5 0.335786 9.5 0.75C9.5 1.16421 9.16421 1.5 8.75 1.5H0.75C0.335786 1.5 0 1.16421 0 0.75Z"/>
  </g>
</svg>
